<svg xmlns="http://www.w3.org/2000/svg" aria-hidden="true" style="position:absolute;width:0;height:0;overflow:hidden">
  <defs>
    <symbol id="icon-linkedin" viewBox="0 0 32 32">
      <path d="M24.587 4.08H7.414a3.344 3.344 0 0 0-3.333 3.333v17.173a3.344 3.344 0 0 0 3.333 3.333h17.173a3.333 3.333 0 0 0 3.333-3.333V7.413a3.333 3.333 0 0 0-3.333-3.333zm2 20.507a2.016 2.016 0 0 1-2 2H7.414a2.016 2.016 0 0 1-2-2V7.414a2.016 2.016 0 0 1 2-2h17.173a2.016 2.016 0 0 1 2 2v17.173z"/>
      <path d="M8.502 14.33a1.33 1.33 0 0 1 1.334-1.333 1.333 1.333 0 0 1 1.333 1.333v8.667a1.333 1.333 0 1 1-2.667 0V14.33zm1.333-4.005a1.333 1.333 0 1 0 0-2.667 1.333 1.333 0 0 0 0 2.667zm13.658 7.502V23a1.333 1.333 0 1 1-2.666 0v-5.173a2.154 2.154 0 0 0-4.308 0V23a1.333 1.333 0 1 1-2.666 0v-8.667a1.357 1.357 0 0 1 1.334-1.334 1.256 1.256 0 0 1 1.12.627 4.816 4.816 0 0 1 4.802.03 4.81 4.81 0 0 1 2.384 4.169z"/>
    </symbol>
    <symbol id="icon-primary" viewBox="0 0 32 32">
      <path stroke-linecap="round" stroke-linejoin="round" stroke-width="2.182" d="M30.545 7.918h-1.616a6.464 6.464 0 0 1-6.465-6.463h-6.465v18.581a4.04 4.04 0 1 1-6.465-3.231v-6.98a10.504 10.504 0 0 0-7.832 7.948 10.505 10.505 0 1 0 20.762 2.263v-7.4a12.933 12.933 0 0 0 6.465 1.745h1.616V7.918z"/>
    </symbol>
    <symbol id="icon-insta" viewBox="0 0 32 32">
      <path stroke-linecap="round" stroke-linejoin="round" stroke-width="2.182" d="M24 8h.015M8.727 1.455h14.545a7.273 7.273 0 0 1 7.273 7.273v14.545a7.273 7.273 0 0 1-7.273 7.273H8.727a7.273 7.273 0 0 1-7.273-7.273V8.728a7.273 7.273 0 0 1 7.273-7.273zm13.091 13.629a5.812 5.812 0 0 1-3.14 6.05 5.815 5.815 0 0 1-6.73-1.083 5.818 5.818 0 1 1 9.869-4.968z"/>
    </symbol>
    <symbol id="icon-facebook" viewBox="0 0 32 32">
      <path stroke-linecap="round" stroke-linejoin="round" stroke-width="2" d="M24.667 2H19.94c-2.09 0-4.094.737-5.571 2.05S12.061 7.143 12.061 9v4.2H7.334v5.6h4.727V30h6.303V18.8h4.727l1.576-5.6h-6.303V9c0-.371.166-.727.462-.99s.696-.41 1.114-.41h4.727V2z"/>
    </symbol>
    <symbol id="icon-mail" viewBox="0 0 32 32">
      <path d="M4.286 4h23.429c1.104 0 2 1.045 2 2.333V25c0 .619-.211 1.212-.586 1.65s-.884.683-1.414.683H4.286c-.53 0-1.039-.246-1.414-.683s-.586-1.031-.586-1.65V6.333c0-1.288.896-2.333 2-2.333zM4 9.883V25c0 .184.128.333.286.333h23.429c.076 0 .148-.035.202-.098s.084-.147.084-.236V9.882l-10.88 8.577a1.769 1.769 0 0 1-2.24 0L4.001 9.882zm0-3.55v1.136l11.84 9.333c.047.037.103.057.16.057s.113-.02.16-.057L28 7.469V6.333c0-.088-.03-.173-.084-.236s-.126-.098-.202-.098H4.285c-.076 0-.148.035-.202.098s-.084.147-.084.236z"/>
    </symbol>
  </defs>
</svg>
