<svg xmlns="http://www.w3.org/2000/svg" aria-hidden="true" style="position:absolute;width:0;height:0;overflow:hidden">
  <defs>
    <symbol id="icon-octicon-people" viewBox="0 0 32 32">
      <path fill="#cd7829" d="M4.827 10.667a7.33 7.33 0 0 1 7.13-7.329 7.332 7.332 0 0 1 6.779 10.577 7.344 7.344 0 0 1-2.448 2.815 12.005 12.005 0 0 1 7.867 10.907 1.004 1.004 0 0 1-.971.989 1.002 1.002 0 0 1-1.029-.929 9.999 9.999 0 0 0-19.99 0 1.005 1.005 0 0 1-1.028.949 1.001 1.001 0 0 1-.971-1.007 12.009 12.009 0 0 1 7.867-10.908 7.327 7.327 0 0 1-3.206-6.062zm7.333-5.334a5.332 5.332 0 1 0 0 10.665 5.332 5.332 0 0 0 0-10.665zm11.053 5.334a4.1 4.1 0 0 0-.579.04c-.132.024-.268.02-.399-.009s-.255-.086-.363-.165a.993.993 0 0 1-.404-.669 1.008 1.008 0 0 1 .2-.755.998.998 0 0 1 .683-.381 6.04 6.04 0 0 1 4.507 10.796 8.924 8.924 0 0 1 5.275 8.143 1.002 1.002 0 0 1-1.707.707 1 1 0 0 1-.293-.707 6.926 6.926 0 0 0-4.928-6.629l-.712-.213V18.59l.547-.279a4.036 4.036 0 0 0 2.103-4.543 4.044 4.044 0 0 0-3.93-3.101z" style="fill:var(--color1, #cd7829)"/>
    </symbol>
    <symbol id="icon-ph-star" viewBox="0 0 32 32">
      <path fill="#cd7829" d="M30.06 12.161a1.997 1.997 0 0 0-1.726-1.375l-7.424-.64L18 3.226a1.993 1.993 0 0 0-3.68 0l-2.901 6.92-7.433.644a2 2 0 0 0-1.139 3.508l5.639 4.928-1.69 7.317a2.003 2.003 0 0 0 .771 2.072 2.002 2.002 0 0 0 2.209.096l6.375-3.875 6.389 3.875a2 2 0 0 0 2.98-2.168l-1.689-7.325 5.637-4.92a2.009 2.009 0 0 0 .592-2.137zm-1.903.625-5.637 4.92a1.998 1.998 0 0 0-.635 1.964L23.579 27l-6.384-3.875a1.983 1.983 0 0 0-2.068 0L8.752 27l1.682-7.325a1.996 1.996 0 0 0-.635-1.964l-5.64-4.918v-.011l7.43-.643a1.997 1.997 0 0 0 1.669-1.219l2.901-6.911 2.9 6.911a2.004 2.004 0 0 0 1.669 1.219l7.431.643v.009l-.003-.005z" style="fill:var(--color1, #cd7829)"/>
    </symbol>
    <symbol id="icon-carbon-tool-box" viewBox="0 0 32 32">
      <path fill="#cd7829" d="M27.16 9h-3V6a2 2 0 0 0-2-2h-12a2 2 0 0 0-2 2v3h-3a3.004 3.004 0 0 0-3 3v14a2 2 0 0 0 2 2h24a2 2 0 0 0 2-2V12a3.004 3.004 0 0 0-3-3zm-17-3h12v3h-12V6zm18 20h-24v-9h8v5h8v-5h8v9zm-14-9h4v3h-4v-3zm-10-2v-3a.997.997 0 0 1 1-1h22a.997.997 0 0 1 1 1v3h-24z" style="fill:var(--color1, #cd7829)"/>
    </symbol>
    <symbol id="icon-checkmark" viewBox="0 0 32 32">
      <path fill="#cd7829" d="M16.16 2.667C8.808 2.667 2.827 8.648 2.827 16S8.808 29.333 16.16 29.333 29.493 23.352 29.493 16a13.25 13.25 0 0 0-.721-4.289l-2.159 2.159c.14.688.214 1.401.214 2.13 0 5.881-4.785 10.667-10.667 10.667S5.493 21.882 5.493 16 10.278 5.333 16.16 5.333c2.177 0 4.203.659 5.893 1.784l1.909-1.909a13.254 13.254 0 0 0-7.802-2.542zm12.391 1.724L14.827 18.115l-4.391-4.391-1.885 1.885 6.276 6.276L30.436 6.276l-1.885-1.885z" style="fill:var(--color1, #cd7829)"/>
    </symbol>
  </defs>
</svg>
