<svg xmlns="http://www.w3.org/2000/svg" aria-hidden="true" style="position:absolute;width:0;height:0;overflow:hidden">
  <defs>
    <symbol id="icon-k-b-desctop" viewBox="0 0 62 32">
      <path fill="#cd7829" d="M27.308 31.693c-.478 0-1.083-.577-1.813-1.73-.705-1.182-1.7-3.024-2.984-5.528-1.234-2.363-2.228-4.192-2.984-5.486-.73-1.294-1.448-2.349-2.153-3.165l-4.117 5.191V29.5l3.55.422v1.772H6.911v-1.815l3.248-.38V2.617l-3.173-.464V.338h9.519v1.815l-3.248.464v15.361L25.08 2.617l-3.211-.464V.338h8.763v1.815l-2.757.464-8.688 10.846c.881.816 1.788 1.955 2.72 3.418s2.203 3.559 3.815 6.288c1.234 2.138 2.178 3.714 2.833 4.727.68 1.013 1.184 1.533 1.511 1.561l1.775.464v1.772h-4.533zM36.89 2.616l-3.173-.464V.337h4.721c.831 0 1.901-.056 3.211-.169 1.209-.113 2.103-.169 2.682-.169 3.273 0 5.641.605 7.101 1.815 1.486 1.21 2.228 2.968 2.228 5.275 0 1.969-.491 3.686-1.473 5.149-.957 1.435-2.329 2.349-4.117 2.743 2.367-.084 4.218.549 5.553 1.899 1.36 1.35 2.04 3.165 2.04 5.444 0 2.813-.894 5.12-2.682 6.921-1.763 1.801-4.658 2.701-8.688 2.701-.478 0-1.246-.028-2.304-.084a43.147 43.147 0 0 0-3.702-.169h-4.646v-1.815l3.248-.38V2.616zm3.098 11.648c.403.028 1.196.042 2.38.042h2.266c1.914 0 3.374-.549 4.382-1.646s1.511-2.687 1.511-4.769c0-2.054-.504-3.559-1.511-4.515-.982-.957-2.682-1.435-5.1-1.435-.906 0-1.838.056-2.795.169a17.51 17.51 0 0 1-1.133.084v12.07zm0 15.319c.655.225 2.077.338 4.268.338 2.821 0 4.86-.591 6.119-1.772 1.259-1.21 1.889-2.94 1.889-5.191s-.541-3.882-1.624-4.895c-1.082-1.041-2.833-1.561-5.25-1.561h-2.795c-1.36 0-2.228.014-2.606.042v13.04z" style="fill:var(--color1, #cd7829)"/>
      <path d="M59.088 12.712H2.626v6.137h56.462v-6.137z" style="fill:var(--color2, #000)"/>
      <path fill="#eee" d="M10.282 17.916c-.045 0-.104-.066-.177-.197a10.131 10.131 0 0 1-.304-.636c-.112-.248-.206-.448-.281-.6s-.148-.278-.218-.378l-.404.527v.92l.39.057v.305H7.877v-.31l.358-.052V14.46l-.354-.067v-.321h1.365v.321l-.349.067v1.686l1.193-1.686-.372-.067v-.321h1.225v.321l-.376.067-.88 1.127c.106.11.218.267.336.471.118.2.262.462.431.786.124.238.218.412.281.522.063.107.112.169.145.186l.213.057v.305h-.812zm1.587-.311.358-.052v-3.092l-.34-.072v-.315h.658a4.565 4.565 0 0 0 .35-.015c.157-.014.287-.021.39-.021.312 0 .561.036.748.109s.324.183.408.331.127.343.127.584c0 .238-.056.459-.168.662s-.274.343-.485.419c.121.059.228.165.322.321s.194.357.299.605c.076.169.133.291.172.367.042.072.083.114.122.124l.15.052v.305h-.771c-.048 0-.1-.055-.154-.166a7.525 7.525 0 0 1-.204-.533c-.1-.283-.186-.503-.259-.662s-.15-.257-.231-.295h-.467v1.293l.417.052v.31h-1.442v-.31zm1.442-1.659c.172 0 .307-.071.404-.212s.145-.353.145-.636c0-.252-.048-.438-.145-.558-.094-.121-.257-.181-.49-.181-.085 0-.157.005-.218.015-.057.007-.095.01-.113.01v1.551c.036.007.124.01.263.01h.154zm4.006 2.011c-.46 0-.801-.131-1.025-.393s-.336-.674-.336-1.236v-1.867l-.299-.067v-.321h1.37v.321l-.386.072v1.929c0 .82.256 1.231.767 1.231a.6.6 0 0 0 .558-.315c.121-.214.181-.512.181-.895v-1.949l-.39-.072v-.321h1.134v.321l-.308.067v1.913c0 .538-.115.936-.345 1.194-.227.259-.534.388-.921.388zm2.775-3.495-.34-.067v-.321h.685c.064 0 .162-.004.295-.01.175-.014.334-.021.476-.021.314 0 .562.045.744.134a.768.768 0 0 1 .39.377c.079.162.118.369.118.62 0 .434-.119.772-.358 1.013-.236.241-.564.362-.984.362-.166 0-.286-.005-.358-.016v1.019l.608.052v.31h-1.633v-.31l.358-.052V14.46zm.662 1.742c.07.017.187.026.354.026a.577.577 0 0 0 .485-.238c.124-.162.186-.429.186-.802 0-.29-.056-.5-.168-.631-.109-.134-.277-.202-.503-.202-.085 0-.172.007-.263.021a.619.619 0 0 1-.091.01v1.815zm3.002-1.742-.386-.067v-.321h1.451v.321l-.399.067v3.092l.399.057v.305H23.37v-.31l.386-.052v-3.092zm2.421 0-.358-.067v-.321h1.03l1.352 2.327.254.589v-2.528l-.39-.067v-.321h1.125v.321l-.349.067v3.454h-.549l-1.411-2.446-.317-.683v2.766l.458.052v.31H25.82v-.31l.358-.052v-3.092zm4.247 0-.363-.067v-.321h2.418l.059.869h-.318l-.15-.512-.98-.047v1.391l.63-.015.073-.424h.29v1.251h-.29l-.073-.445-.63-.016v1.458l1.098-.062.263-.662.34.109-.118.946h-2.608v-.31l.358-.052v-3.092zm4.766 3.511c-.514 0-.907-.174-1.179-.522-.272-.352-.408-.831-.408-1.437 0-.4.071-.748.213-1.044.145-.3.343-.531.594-.693s.535-.243.853-.243c.133 0 .262.01.386.031.124.017.271.041.44.072.127.024.197.036.209.036l-.05 1.065h-.417l-.141-.739c-.033-.038-.091-.069-.172-.093s-.186-.036-.313-.036c-.257 0-.464.136-.621.409-.154.269-.231.66-.231 1.174 0 .496.074.901.222 1.215s.364.471.649.471c.136 0 .24-.014.313-.041a.525.525 0 0 0 .19-.129l.2-.533.381.041-.091.802a1.02 1.02 0 0 0-.191.041c-.06.017-.098.028-.113.031a3.235 3.235 0 0 1-.34.088 1.71 1.71 0 0 1-.381.036zm4.099-3.511-.354-.067v-.321h.676c.103 0 .236-.007.399-.021a3.106 3.106 0 0 1 .332-.015c.456 0 .776.074.957.222.184.145.277.362.277.652 0 .255-.068.469-.204.641a.826.826 0 0 1-.526.31c.299-.003.534.074.703.233.172.159.258.379.258.662 0 .358-.11.646-.331.864s-.59.326-1.107.326c-.136 0-.262-.005-.377-.015-.03 0-.082-.003-.154-.01a5.4 5.4 0 0 0-.222-.005h-.685v-.31l.358-.052v-3.092zm.658 1.287c.033.004.101.005.204.005h.213c.184 0 .322-.066.413-.196s.136-.315.136-.553c0-.227-.047-.393-.141-.496s-.249-.155-.467-.155c-.057 0-.177.007-.358.021v1.375zm0 1.825c.07.031.203.047.399.047.257 0 .443-.069.558-.207s.172-.338.172-.6c0-.252-.053-.431-.159-.538-.103-.11-.268-.166-.494-.166-.254 0-.413.003-.476.01v1.453zm4.226.399c-.493 0-.862-.176-1.107-.527s-.367-.831-.367-1.438c0-.396.064-.745.191-1.044.13-.3.311-.531.544-.693s.5-.243.803-.243c.499 0 .872.169 1.12.507.251.334.376.803.376 1.406 0 .4-.066.755-.2 1.065-.13.307-.313.545-.549.714s-.506.253-.812.253zm.045-3.63c-.248 0-.441.14-.58.419s-.209.693-.209 1.241c0 .541.066.953.2 1.236.136.279.33.419.581.419.245 0 .437-.146.576-.439.139-.296.209-.722.209-1.277 0-.538-.067-.938-.2-1.2-.133-.265-.325-.398-.576-.398zm4.001 3.614c-.46 0-.801-.131-1.025-.393s-.336-.674-.336-1.236v-1.867l-.299-.067v-.321h1.37v.321l-.386.072v1.929c0 .82.256 1.231.766 1.231a.6.6 0 0 0 .558-.315c.121-.214.181-.512.181-.895v-1.949l-.39-.072v-.321h1.134v.321l-.309.067v1.913c0 .538-.115.936-.344 1.194-.227.259-.534.388-.921.388zm2.154-3.883h1.361v.321l-.395.067.572 2.332.104.574.105-.574.485-1.892-.127-.44-.299-.067v-.321h1.42v.321l-.435.067.567 2.332.123.62.095-.62.517-2.332-.408-.067v-.321h1.093v.321l-.29.067-.862 3.48H53.4l-.626-2.415-.599 2.415h-.59l-.934-3.475-.277-.072v-.321z" style="fill:var(--color3, #eee)"/>
    </symbol>
    <symbol id="icon-k-b-mobil-tab" viewBox="0 0 60 32">
      <path fill="#cd7829" d="M26.55 31.693c-.465 0-1.053-.577-1.763-1.73-.686-1.182-1.653-3.024-2.901-5.528-1.2-2.363-2.167-4.192-2.901-5.486-.71-1.294-1.408-2.349-2.093-3.165l-4.003 5.191V29.5l3.452.422v1.772H6.72v-1.815l3.158-.38V2.617l-3.085-.464V.338h9.254v1.815l-3.158.464v15.361L24.383 2.617l-3.121-.464V.338h8.52v1.815l-2.681.464-8.446 10.846c.857.816 1.738 1.955 2.644 3.418s2.142 3.559 3.709 6.288c1.2 2.138 2.118 3.714 2.754 4.727.661 1.013 1.151 1.533 1.469 1.561l1.726.464v1.772H26.55zm9.315-29.077-3.085-.464V.337h4.59c.808 0 1.848-.056 3.121-.169 1.175-.113 2.044-.169 2.607-.169 3.183 0 5.484.605 6.904 1.815 1.444 1.21 2.166 2.968 2.166 5.275 0 1.969-.477 3.685-1.432 5.149-.931 1.435-2.265 2.349-4.003 2.743 2.301-.084 4.101.549 5.398 1.899 1.322 1.35 1.983 3.165 1.983 5.444 0 2.813-.869 5.12-2.607 6.921-1.714 1.8-4.529 2.701-8.446 2.701-.465 0-1.212-.028-2.24-.084a40.808 40.808 0 0 0-3.599-.169h-4.517v-1.815l3.158-.38V2.616zm3.012 11.648c.392.028 1.163.042 2.313.042h2.203c1.861 0 3.281-.549 4.26-1.646s1.469-2.687 1.469-4.769c0-2.054-.49-3.559-1.469-4.515-.955-.957-2.608-1.435-4.958-1.435-.881 0-1.787.056-2.717.169-.587.056-.955.084-1.102.084v12.069zm0 15.319c.636.225 2.02.338 4.15.338 2.742 0 4.725-.591 5.949-1.773 1.224-1.21 1.836-2.94 1.836-5.191s-.526-3.883-1.579-4.895c-1.052-1.041-2.754-1.561-5.104-1.561h-2.717c-1.322 0-2.167.014-2.534.042v13.04z" style="fill:var(--color1, #cd7829)"/>
      <path d="M57.447 12.712H2.553v6.137h54.894v-6.137z" style="fill:var(--color2, #000)"/>
      <path fill="#eee" d="M9.997 17.916c-.044 0-.101-.066-.172-.197a10.085 10.085 0 0 1-.295-.636c-.109-.248-.2-.448-.273-.6s-.144-.277-.212-.378l-.392.527v.92l.379.057v.305H7.661v-.31l.348-.052V14.46l-.344-.067v-.321h1.327v.321l-.34.067v1.686l1.16-1.686-.362-.067v-.321h1.191v.321l-.366.067-.855 1.127c.103.11.212.267.326.471.115.2.254.462.419.786.12.238.212.412.273.522.062.107.109.169.141.186l.207.057v.305h-.789zm1.542-.311.348-.052v-3.092l-.331-.072v-.315h.639a4.218 4.218 0 0 0 .339-.015c.153-.014.279-.021.379-.021.303 0 .545.036.727.109s.315.183.397.331c.082.148.123.343.123.584 0 .238-.054.459-.163.662s-.266.343-.472.419c.118.058.222.165.313.32s.188.357.291.605c.074.169.129.291.168.367.041.072.081.114.119.124l.146.052v.305h-.75c-.047 0-.097-.055-.15-.166a7.288 7.288 0 0 1-.198-.532c-.097-.283-.181-.503-.251-.662s-.146-.257-.225-.295h-.454v1.293l.406.052v.31h-1.402v-.31zm1.402-1.659c.168 0 .298-.071.393-.212s.141-.353.141-.636c0-.252-.047-.438-.141-.558-.091-.121-.25-.181-.476-.181-.082 0-.153.005-.212.015-.056.007-.093.01-.11.01v1.551c.035.007.12.01.256.01h.15zm3.895 2.011c-.447 0-.779-.131-.996-.393s-.326-.674-.326-1.236v-1.867l-.291-.067v-.321h1.332v.321l-.375.072v1.929c0 .82.248 1.231.745 1.231a.58.58 0 0 0 .542-.315c.118-.214.176-.512.176-.895v-1.949l-.379-.072v-.321h1.102v.321l-.3.067v1.913c0 .538-.112.936-.335 1.194-.221.259-.519.388-.895.388zm2.698-3.495-.331-.067v-.321h.666c.062 0 .157-.004.287-.01.171-.014.325-.021.463-.021.306 0 .547.045.723.134a.752.752 0 0 1 .379.377c.076.162.115.369.115.62 0 .434-.116.772-.348 1.013-.229.241-.548.362-.957.362-.162 0-.278-.005-.348-.015v1.019l.591.052v.31h-1.587v-.31l.348-.052v-3.092zm.644 1.742c.067.017.182.026.344.026a.558.558 0 0 0 .472-.238c.12-.162.181-.429.181-.802 0-.29-.054-.5-.163-.631-.106-.134-.269-.202-.489-.202-.082 0-.168.007-.256.021a.577.577 0 0 1-.088.01v1.815zm2.918-1.742-.375-.067v-.321h1.411v.321l-.388.067v3.092l.388.057v.305h-1.411v-.31l.375-.052v-3.092zm2.354 0-.348-.067v-.321h1.001l1.314 2.327.247.589v-2.528l-.379-.067v-.321h1.094v.321l-.34.067v3.454h-.534l-1.371-2.446-.309-.683v2.766l.445.052v.31h-1.169v-.31l.348-.052v-3.092zm4.129 0-.353-.067v-.321h2.35l.057.869h-.309l-.145-.512-.953-.047v1.391l.613-.015.071-.424h.282v1.251h-.282l-.071-.445-.613-.016v1.458l1.067-.062.256-.662.331.109-.115.946h-2.536v-.31l.348-.052v-3.092zm4.634 3.511c-.5 0-.882-.174-1.147-.522-.265-.352-.397-.831-.397-1.437 0-.4.069-.748.207-1.044.141-.3.334-.531.578-.693s.52-.243.829-.243c.129 0 .254.01.375.031.121.017.263.041.428.072.123.024.191.036.203.036l-.048 1.065h-.406l-.137-.739c-.032-.038-.088-.069-.168-.093s-.181-.036-.304-.036c-.25 0-.451.136-.604.409-.15.269-.225.66-.225 1.174 0 .496.072.901.216 1.215s.354.471.631.471a.884.884 0 0 0 .304-.041.514.514 0 0 0 .185-.129l.194-.532.37.041-.088.802a.945.945 0 0 0-.185.041l-.11.031a3.106 3.106 0 0 1-.331.088c-.1.024-.223.036-.37.036zm3.985-3.511-.344-.067v-.321h.657c.1 0 .229-.007.388-.021a2.99 2.99 0 0 1 .322-.015c.444 0 .754.074.93.222.179.145.269.362.269.652 0 .255-.066.469-.199.641a.8.8 0 0 1-.511.31c.291-.003.519.074.684.233.168.159.251.379.251.662 0 .358-.107.646-.322.863s-.573.326-1.076.326c-.132 0-.254-.005-.366-.015-.029 0-.079-.003-.15-.01a5.11 5.11 0 0 0-.216-.005h-.666v-.31l.348-.052v-3.092zm.639 1.287c.032.004.099.005.198.005h.207c.179 0 .313-.066.401-.196s.132-.315.132-.553c0-.227-.046-.393-.137-.496s-.243-.155-.454-.155c-.056 0-.172.007-.348.021v1.375zm0 1.825c.068.031.197.047.388.047.25 0 .431-.069.542-.207s.167-.338.167-.6c0-.252-.051-.431-.154-.538-.1-.11-.26-.166-.481-.166-.247 0-.401.003-.463.01v1.453zm4.109.399c-.479 0-.838-.176-1.076-.527s-.357-.831-.357-1.438c0-.396.062-.745.185-1.044.126-.3.303-.531.529-.693s.486-.243.781-.243c.485 0 .848.169 1.089.507.244.334.366.803.366 1.406 0 .4-.065.755-.194 1.065-.126.307-.304.545-.534.714s-.492.253-.789.253zm.044-3.63c-.241 0-.429.14-.564.419s-.203.693-.203 1.241c0 .541.065.953.194 1.236.132.279.32.419.565.419.238 0 .425-.146.56-.439.135-.296.203-.722.203-1.277 0-.538-.065-.938-.194-1.2-.13-.265-.316-.398-.56-.398zm3.89 3.614c-.447 0-.779-.131-.997-.393s-.326-.674-.326-1.236v-1.867l-.291-.067v-.321h1.332v.321l-.375.072v1.929c0 .82.248 1.231.745 1.231a.58.58 0 0 0 .542-.315c.117-.214.176-.512.176-.895v-1.949l-.379-.072v-.321h1.102v.321l-.3.067v1.913c0 .538-.111.936-.335 1.194-.22.259-.519.388-.895.388zm2.094-3.883h1.323v.321l-.384.067.556 2.332.101.574.102-.574.471-1.892-.123-.44-.291-.067v-.321h1.38v.321l-.423.067.551 2.332.119.62.093-.62.503-2.332-.397-.067v-.321h1.063v.321l-.282.067-.838 3.48h-.582l-.608-2.415-.582 2.415h-.573l-.909-3.475-.269-.072v-.321z" style="fill:var(--color3, #eee)"/>
    </symbol>
  </defs>
</svg>
