<svg xmlns="http://www.w3.org/2000/svg" width="108" height="56" fill="none">
  <path fill="#CD7829" d="M47.79 55.463c-.837 0-1.895-1.01-3.173-3.028-1.234-2.068-2.974-5.293-5.222-9.675-2.16-4.135-3.9-7.336-5.222-9.6-1.278-2.265-2.534-4.111-3.768-5.54L23.2 36.706v14.918l6.214.738v3.102H12.095v-3.176l5.685-.664V4.579l-5.552-.812V.59h16.657v3.176l-5.685.812V31.46L43.89 4.579l-5.619-.812V.59h15.336v3.176l-4.826.812-15.203 18.98c1.543 1.428 3.129 3.422 4.76 5.982 1.63 2.56 3.855 6.228 6.676 11.004 2.159 3.742 3.811 6.499 4.957 8.271 1.19 1.773 2.071 2.683 2.644 2.733l3.107.812v3.102H47.79ZM64.558 4.579l-5.553-.813V.591h8.263c1.454 0 3.327-.099 5.619-.296C75.002.098 76.567 0 77.58 0c5.729 0 9.87 1.059 12.427 3.176 2.6 2.117 3.9 5.194 3.9 9.231 0 3.447-.86 6.45-2.578 9.01-1.675 2.511-4.076 4.111-7.205 4.8 4.142-.147 7.381.96 9.717 3.324 2.38 2.363 3.569 5.539 3.569 9.527 0 4.923-1.564 8.96-4.693 12.111-3.085 3.151-8.152 4.727-15.204 4.727-.837 0-2.18-.05-4.031-.148a75.83 75.83 0 0 0-6.478-.295h-8.13v-3.176l5.684-.665V4.58Zm5.42 20.383c.705.05 2.093.074 4.165.074h3.966c3.35 0 5.904-.96 7.668-2.88 1.762-1.92 2.644-4.702 2.644-8.346 0-3.594-.882-6.228-2.644-7.902-1.72-1.674-4.694-2.51-8.925-2.51-1.586 0-3.216.098-4.89.295-1.058.098-1.72.147-1.984.147v21.122Zm0 26.808c1.146.394 3.636.591 7.47.591 4.935 0 8.505-1.034 10.708-3.102 2.203-2.117 3.305-5.145 3.305-9.084 0-3.938-.948-6.794-2.843-8.566-1.894-1.822-4.957-2.733-9.187-2.733h-4.892c-2.38 0-3.9.025-4.56.074v22.82Z"/>
  <path fill="#000" d="M103.404 22.247H4.596v10.74h98.808v-10.74Z"/>
  <path fill="#EEE" d="M17.994 31.353c-.08 0-.182-.115-.31-.344a18.808 18.808 0 0 1-.531-1.113 31.18 31.18 0 0 0-.492-1.05 5.363 5.363 0 0 0-.381-.66l-.707.922v1.611l.683.1v.534h-2.469v-.543l.627-.09v-5.412l-.619-.118v-.56h2.39v.56l-.612.118v2.95l2.088-2.95-.651-.118v-.56h2.143v.56l-.659.118-1.54 1.973c.186.193.381.467.588.823.206.35.458.808.754 1.376a26 26 0 0 0 .492.913c.111.188.196.296.254.326l.373.1v.534h-1.42Zm2.776-.543.627-.09v-5.412l-.595-.127v-.552h1.15a6.816 6.816 0 0 0 .612-.027c.275-.024.503-.036.683-.036.545 0 .981.063 1.31.19.327.127.565.32.714.58.148.259.222.6.222 1.022 0 .416-.098.802-.294 1.158-.196.356-.479.6-.85.733.212.102.4.29.564.56.165.272.34.625.524 1.06.133.295.233.51.302.642.074.127.145.2.214.217l.262.09v.535h-1.35c-.084 0-.174-.097-.27-.29-.089-.2-.208-.51-.356-.932-.175-.495-.326-.88-.453-1.158-.127-.278-.262-.45-.405-.516h-.817v2.262l.73.09v.544H20.77v-.543Zm2.524-2.905a.81.81 0 0 0 .707-.371c.169-.247.253-.618.253-1.113 0-.44-.084-.766-.253-.977-.165-.211-.45-.317-.858-.317-.148 0-.275.01-.38.027a2.145 2.145 0 0 1-.2.018v2.715c.064.012.218.018.461.018h.27Zm7.011 3.52c-.804 0-1.402-.23-1.793-.688-.392-.458-.588-1.179-.588-2.162v-3.267l-.524-.118v-.56h2.397v.56l-.674.127v3.375c0 1.436.447 2.154 1.341 2.154.44 0 .765-.184.976-.552.212-.374.318-.896.318-1.566v-3.41l-.683-.128v-.56h1.985v.56l-.54.118v3.348c0 .941-.201 1.638-.603 2.09-.397.453-.934.679-1.612.679Zm4.856-6.117-.595-.118v-.56h1.199c.11 0 .283-.007.516-.019.306-.024.584-.036.833-.036.55 0 .984.079 1.302.235.323.151.55.371.682.66.138.284.207.646.207 1.087 0 .76-.21 1.351-.627 1.773-.413.423-.987.634-1.723.634-.29 0-.5-.01-.627-.027v1.782l1.064.09v.544h-2.858v-.543l.627-.09v-5.412Zm1.16 3.05c.12.03.327.045.618.045.355 0 .638-.139.85-.416.217-.284.325-.752.325-1.403 0-.507-.098-.875-.294-1.104-.19-.235-.484-.353-.88-.353-.149 0-.302.012-.461.036a1.145 1.145 0 0 1-.159.018v3.176Zm5.252-3.05-.675-.118v-.56h2.54v.56l-.698.118v5.411l.698.1v.534h-2.54v-.543l.675-.09v-5.412Zm4.236 0-.627-.118v-.56h1.802l2.366 4.07.444 1.032v-4.425l-.682-.118v-.56h1.968v.56l-.611.118v6.045h-.96l-2.47-4.28-.555-1.195v4.841l.802.09v.544h-2.104v-.543l.627-.09v-5.412Zm7.433 0-.635-.118v-.56h4.23l.104 1.52h-.556l-.262-.896-1.715-.082v2.434l1.104-.027.127-.742h.508v2.19h-.508l-.127-.778-1.104-.027v2.551l1.921-.108.46-1.158.596.19-.206 1.656h-4.564v-.543l.627-.09v-5.412Zm8.341 6.144c-.9 0-1.587-.305-2.064-.914-.476-.615-.714-1.454-.714-2.515 0-.7.124-1.31.373-1.828.254-.525.6-.93 1.04-1.213.44-.283.936-.425 1.492-.425.233 0 .458.018.675.054.217.03.473.073.77.127.222.042.344.063.365.063l-.088 1.864h-.73l-.246-1.294c-.058-.066-.159-.12-.301-.162a1.976 1.976 0 0 0-.548-.064c-.45 0-.812.238-1.088.715-.27.47-.404 1.155-.404 2.054 0 .869.13 1.577.389 2.127.259.549.637.823 1.135.823.238 0 .42-.024.547-.073a.928.928 0 0 0 .334-.226l.349-.932.667.073-.16 1.402a1.646 1.646 0 0 0-.332.073c-.106.03-.172.048-.199.054-.212.066-.41.118-.595.154-.18.042-.402.063-.667.063Zm7.174-6.144-.62-.118v-.56h1.183c.18 0 .413-.013.699-.037a5.307 5.307 0 0 1 .58-.027c.798 0 1.356.13 1.674.39.323.253.484.633.484 1.14 0 .446-.12.82-.357 1.121-.233.296-.54.477-.921.543.524-.006.934.13 1.23.407.302.278.453.664.453 1.159 0 .627-.193 1.13-.58 1.51-.386.38-1.031.57-1.936.57a7.47 7.47 0 0 1-.66-.026c-.052 0-.142-.006-.269-.018a8.116 8.116 0 0 0-.389-.01h-1.199v-.542l.627-.09v-5.412Zm1.15 2.253c.059.006.178.01.358.01h.373c.322 0 .563-.116.722-.345.159-.229.238-.552.238-.968 0-.398-.082-.688-.246-.868-.164-.181-.437-.272-.818-.272-.1 0-.31.012-.627.036v2.407Zm0 3.194c.122.055.355.082.699.082.45 0 .775-.12.976-.362.201-.242.302-.591.302-1.05 0-.44-.093-.754-.278-.94-.18-.194-.468-.29-.865-.29-.445 0-.722.006-.834.018v2.542Zm7.396.697c-.863 0-1.508-.308-1.937-.923-.429-.615-.643-1.454-.643-2.515 0-.694.111-1.303.333-1.828.228-.525.545-.93.953-1.213a2.4 2.4 0 0 1 1.405-.425c.873 0 1.526.296 1.96.887.44.585.66 1.405.66 2.46 0 .7-.117 1.322-.35 1.865-.227.537-.547.953-.96 1.249a2.378 2.378 0 0 1-1.421.443Zm.079-6.352c-.434 0-.772.244-1.016.733-.243.489-.365 1.212-.365 2.172 0 .947.116 1.667.35 2.162.237.489.576.733 1.015.733.429 0 .765-.256 1.008-.769.243-.519.366-1.264.366-2.235 0-.941-.117-1.64-.35-2.1-.233-.464-.569-.696-1.008-.696Zm7.002 6.325c-.804 0-1.402-.23-1.794-.688-.391-.458-.587-1.179-.587-2.162v-3.267l-.524-.118v-.56h2.397v.56l-.675.127v3.375c0 1.436.448 2.154 1.342 2.154.44 0 .765-.184.976-.552.212-.374.317-.896.317-1.566v-3.41l-.682-.128v-.56h1.984v.56l-.54.118v3.348c0 .941-.2 1.638-.602 2.09-.397.453-.935.679-1.612.679Zm3.769-6.796h2.381v.561l-.69.118 1 4.081.182 1.004.183-1.004.849-3.312-.223-.769-.524-.118v-.56h2.485v.56l-.762.118.992 4.081.215 1.086.166-1.086.905-4.081-.714-.118v-.56h1.913v.56l-.508.118-1.508 6.09h-1.048l-1.095-4.226-1.048 4.226h-1.032l-1.635-6.08-.484-.128v-.56Z"/>
</svg>
