<svg xmlns="http://www.w3.org/2000/svg" aria-hidden="true" style="position:absolute;width:0;height:0;overflow:hidden">
  <defs>
    <symbol id="icon-octicon-people" viewBox="0 0 32 32">
      <path fill="#cd7829" d="M4.667 10.667a7.33 7.33 0 0 1 7.13-7.329 7.332 7.332 0 0 1 6.779 10.577 7.328 7.328 0 0 1-2.448 2.815 12.005 12.005 0 0 1 7.867 10.907 1.004 1.004 0 0 1-.971.989 1.002 1.002 0 0 1-1.029-.929 9.999 9.999 0 0 0-19.99 0 1.005 1.005 0 0 1-1.028.949 1.001 1.001 0 0 1-.971-1.007 12.009 12.009 0 0 1 7.867-10.908 7.335 7.335 0 0 1-3.206-6.062zM12 5.334a5.332 5.332 0 1 0 0 10.665 5.332 5.332 0 0 0 0-10.665zm11.053 5.333a4.1 4.1 0 0 0-.579.04c-.132.024-.268.02-.399-.009s-.255-.086-.363-.165a.993.993 0 0 1-.404-.669 1.008 1.008 0 0 1 .2-.755.998.998 0 0 1 .683-.381 6.04 6.04 0 0 1 4.507 10.796 8.922 8.922 0 0 1 5.274 8.142.997.997 0 0 1-1 1 .997.997 0 0 1-1-1 6.926 6.926 0 0 0-4.928-6.629l-.712-.213v-2.235l.547-.279a4.036 4.036 0 0 0 2.103-4.543 4.044 4.044 0 0 0-3.93-3.101z" style="fill:var(--color1, #cd7829)"/>
    </symbol>
    <symbol id="icon-ph-star" viewBox="0 0 32 32">
      <path fill="#cd7829" d="M29.9 12.161a1.997 1.997 0 0 0-1.726-1.375l-7.424-.64-2.91-6.92a1.996 1.996 0 0 0-2.945-.891 2.005 2.005 0 0 0-.735.891l-2.901 6.92-7.433.644a2 2 0 0 0-1.139 3.508l5.639 4.927-1.69 7.317a2.003 2.003 0 0 0 .771 2.072 1.994 1.994 0 0 0 2.209.096l6.375-3.875 6.389 3.875a2 2 0 0 0 2.98-2.168l-1.689-7.325 5.637-4.92a2.009 2.009 0 0 0 .592-2.137zm-1.903.625-5.637 4.92a1.998 1.998 0 0 0-.635 1.964L23.419 27l-6.384-3.875a1.983 1.983 0 0 0-2.068 0L8.592 27l1.683-7.325a1.996 1.996 0 0 0-.635-1.964L4 12.794v-.011l7.43-.643a1.997 1.997 0 0 0 1.669-1.219L16 4.01l2.9 6.911a2.004 2.004 0 0 0 1.669 1.219l7.431.643v.009l-.003-.005z" style="fill:var(--color1, #cd7829)"/>
    </symbol>
    <symbol id="icon-carbon-tool-box" viewBox="0 0 32 32">
      <path fill="#cd7829" d="M27 9h-3V6a2 2 0 0 0-2-2H10a2 2 0 0 0-2 2v3H5a3.004 3.004 0 0 0-3 3v14a2 2 0 0 0 2 2h24a2 2 0 0 0 2-2V12a3.004 3.004 0 0 0-3-3zM10 6h12v3H10V6zm18 20H4v-9h8v5h8v-5h8v9zm-14-9h4v3h-4v-3zM4 15v-3a.997.997 0 0 1 1-1h22a.997.997 0 0 1 1 1v3H4z" style="fill:var(--color1, #cd7829)"/>
    </symbol>
    <symbol id="icon-checkmark" viewBox="0 0 32 32">
      <path fill="#cd7829" d="M16 2.667C8.648 2.667 2.667 8.648 2.667 16S8.648 29.333 16 29.333 29.333 23.352 29.333 16a13.25 13.25 0 0 0-.721-4.289l-2.159 2.159c.14.688.214 1.401.214 2.13 0 5.881-4.785 10.667-10.667 10.667S5.333 21.882 5.333 16c0-5.881 4.785-10.667 10.667-10.667 2.177 0 4.203.659 5.893 1.784l1.909-1.909A13.254 13.254 0 0 0 16 2.666zm12.391 1.724L14.667 18.115l-4.391-4.391-1.885 1.885 6.276 6.276L30.276 6.276l-1.885-1.885z" style="fill:var(--color1, #cd7829)"/>
    </symbol>
  </defs>
</svg>
