<svg xmlns="http://www.w3.org/2000/svg" aria-hidden="true" style="position:absolute;width:0;height:0;overflow:hidden">
  <defs>
    <symbol id="icon-copyrighte" viewBox="0 0 32 32">
      <path fill="#cd7829" d="M14.667 22.666h2.667a2.668 2.668 0 0 0 2.667-2.667v-1.333h-2.667v1.333h-2.667v-8h2.667v1.333h2.667v-1.333a2.668 2.668 0 0 0-2.667-2.667h-2.667A2.668 2.668 0 0 0 12 11.999v8a2.67 2.67 0 0 0 2.667 2.667zM16 29.333a13.33 13.33 0 0 0 12.318-8.231 13.337 13.337 0 0 0-2.89-14.53A13.334 13.334 0 0 0 2.667 16 13.334 13.334 0 0 0 16 29.333zm0-2.667A10.662 10.662 0 0 1 8.457 8.458 10.667 10.667 0 1 1 16 26.666z" style="fill:var(--color1, #cd7829)"/>
    </symbol>
  </defs>
</svg>
