<svg xmlns="http://www.w3.org/2000/svg" aria-hidden="true" style="position:absolute;width:0;height:0;overflow:hidden">
  <defs>
    <symbol id="icon-linkedin" viewBox="0 0 32 32">
      <path fill="#272727" d="M24.587 4.08H7.414a3.344 3.344 0 0 0-3.333 3.333v17.173a3.344 3.344 0 0 0 3.333 3.333h17.173a3.333 3.333 0 0 0 3.333-3.333V7.413a3.333 3.333 0 0 0-3.333-3.333zm2 20.507a2.016 2.016 0 0 1-2 2H7.414a2.016 2.016 0 0 1-2-2V7.414a2.016 2.016 0 0 1 2-2h17.173a2.016 2.016 0 0 1 2 2v17.173z" style="fill:var(--color1, #272727)"/>
      <path fill="#272727" d="M8.615 14.331c0-.354.026-.693.276-.943.339-.465.954-.465.954-.465s.615 0 .735.465c.196.506.196.589.196.943v8.667c0 .354 0 .54-.196.943-.12.246-.393.39-.746.39s-.693-.14-.943-.39-.276-.589-.276-.943v-8.667zm1.22-4.006a1.333 1.333 0 1 0 0-2.667 1.333 1.333 0 0 0 0 2.667zm13.795 7.502V23a1.333 1.333 0 0 1-1.333 1.333c-.354 0-.758-.333-.758-.333v-6.173c0-.571-.212-1.423-.615-1.827s-1.503-1.047-2.074-1.047-1.693.028-2.097.432c-.404.404-.615 1.275-.615 1.846v5.538c0 .354.083.924-.167 1.174s-.495.39-.849.39-.49-.14-.74-.39-.39-.589-.39-.943v-8.667a1.357 1.357 0 0 1 1.334-1.334 1.256 1.256 0 0 1 1.12.627 4.816 4.816 0 0 1 4.802.03c.728.425 1.331 1.034 1.749 1.766s.637 1.561.635 2.403z" style="fill:var(--color1, #272727)"/>
    </symbol>
    <symbol id="icon-primary" viewBox="0 0 32 32">
      <path fill="none" stroke="#272727" stroke-linecap="round" stroke-linejoin="round" stroke-width="2.182" d="M30.545 7.918h-1.616a6.464 6.464 0 0 1-6.465-6.463h-6.465v18.581a4.04 4.04 0 1 1-6.465-3.231v-6.98a10.504 10.504 0 0 0-7.832 7.948 10.505 10.505 0 1 0 20.762 2.263v-7.4a12.933 12.933 0 0 0 6.465 1.745h1.616V7.918z" style="stroke:var(--color1, #272727)"/>
    </symbol>
    <symbol id="icon-insta" viewBox="0 0 32 32">
      <path fill="none" stroke="#272727" stroke-linecap="round" stroke-linejoin="round" stroke-width="2.182" d="M24 8h.015M8.727 1.455h14.545a7.273 7.273 0 0 1 7.273 7.273v14.545a7.273 7.273 0 0 1-7.273 7.273H8.727a7.273 7.273 0 0 1-7.273-7.273V8.728a7.273 7.273 0 0 1 7.273-7.273zm13.091 13.629a5.812 5.812 0 0 1-3.14 6.05 5.815 5.815 0 0 1-6.73-1.083 5.818 5.818 0 1 1 9.869-4.968z" style="stroke:var(--color1, #272727)"/>
    </symbol>
    <symbol id="icon-facebook" viewBox="0 0 32 32">
      <path  fill="none" stroke-linecap="round" stroke-linejoin="round" stroke-width="2" d="M24.667 2H19.94c-2.09 0-4.094.737-5.571 2.05S12.061 7.143 12.061 9v4.2H7.334v5.6h4.727V30h6.303V18.8h4.727l1.576-5.6h-6.303V9c0-.371.166-.727.462-.99s.696-.41 1.114-.41h4.727V2z" style="stroke:var(--color1, #272727)"/>
    </symbol>
    <symbol id="icon-mail" viewBox="0 0 32 32">
     <path fill="#272727" d="M2.333 4h27.333a2.334 2.334 0 0 1 2.333 2.333V25a2.336 2.336 0 0 1-2.333 2.333H2.333A2.336 2.336 0 0 1 0 25V6.333A2.334 2.334 0 0 1 2.333 4zM2 9.883V25c0 .184.149.333.333.333h27.333a.334.334 0 0 0 .334-.334V9.882l-12.693 8.577a2.335 2.335 0 0 1-2.613 0L2.001 9.882zm0-3.55v1.136l13.813 9.333a.335.335 0 0 0 .374 0L30 7.469V6.333a.334.334 0 0 0-.334-.334H2.333a.334.334 0 0 0-.334.334z" style="fill:var(--color1, #272727)"/>
    </symbol>
  </defs>
</svg>
